<svg height="512pt" viewBox="-10 0 511 512" width="512pt" xmlns="http://www.w3.org/2000/svg"><path d="m470.074219 329.269531-28.601563 33.007813-34.792968-17.910156c-1.183594-1.808594-2.101563-3.8125-2.707032-6l-42.183594-152.492188-1.097656-3.980469s.011719.28125.042969.804688c.375 8.621093 3.3125 83.832031-9.269531 96.402343v45.851563c28.121094 24.242187 31.765625 143.703125 47.742187 169.441406 0 0-58.242187 12.746094-120.171875 16.539063-5.339844.335937-10.703125.597656-16.050781.773437-5.539063.1875-11.066406.292969-16.550781.292969h-.011719c-31.691406 0-64.949219-3.375-92.304687-7.1875-35.078126-4.859375-60.46875-10.417969-60.46875-10.417969 15.976562-25.738281 19.621093-145.199219 47.742187-169.441406v-45.851563c-13.03125-13.027343-9.417969-93.246093-9.238281-97.070312l.011718-.136719-43.28125 156.472657c-.605468 2.1875-1.527343 4.191406-2.695312 6l-41.472656 8.378906-21.933594-23.476563c-.09375-1.308593-.070312-2.636719.09375-3.960937 14.441406-124.25 57.167969-223.265625 57.167969-223.265625 20.167969-20.164063 47.523437-34.691407 64.972656-42.664063l17.167969-7.5625 74.6875.40625 93.476562.503906 16.636719 6.332032.855469.320312c16.636718 7.609375 42.296875 21.160156 62.128906 39.90625.960938.898438 1.914062 1.816406 2.855469 2.757813 0 0 1.691406 3.917969 4.511719 11.179687 11.367187 29.226563 41.074218 112.558594 52.652343 212.085938.15625 1.324218.179688 2.652344.085938 3.960937zm0 0" fill="#fee372"/><g fill="#eabe32"><path d="m274.738281 297.390625c-3.464843 0-6.636719-2.316406-7.566406-5.824219-1.113281-4.183594 1.375-8.476562 5.558594-9.585937 12.882812-3.429688 21.941406-41.613281 13.90625-77.480469-3.46875-15.480469-14.410157-36.808594-31.640625-61.679688-14.515625-20.953124-30.511719-39.882812-39.230469-48.597656-3.058594-3.0625-3.058594-8.023437.003906-11.085937 3.058594-3.058594 8.019531-3.058594 11.082031 0 16.070313 16.074219 65.75 76.304687 75.078126 117.9375 7.890624 35.214843 2.132812 88.792969-25.171876 96.050781-.671874.179688-1.351562.265625-2.019531.265625zm0 0"/><path d="m282.542969 427.675781c-4.660157 31.847657-9.476563 64.730469-3.507813 83.257813-5.339844.335937-10.703125.597656-16.050781.773437-5.359375-21.953125-.773437-53.308593 4.054687-86.308593 5.789063-39.601563 12.359376-84.492188-3.28125-100.132813-3.0625-3.0625-3.0625-8.023437 0-11.074219 3.0625-3.0625 8.023438-3.0625 11.085938 0 21.199219 21.199219 14.648438 66.027344 7.699219 113.484375zm0 0"/><path d="m185.285156 324.953125s-36.496094 41.410156-26.96875 94.511719c9.425782 52.484375-3.898437 84.605468-4.199218 85.347656-35.078126-4.859375-60.46875-10.417969-60.46875-10.417969 15.976562-25.738281 19.625-145.199219 47.742187-169.441406v-45.851563c-13.03125-13.027343-9.414063-93.246093-9.238281-97.070312l.011718-.136719c0-13.351562-3.25-25.023437-8.140624-35.015625 0 0 32.257812-14.050781 37.019531 13.867188 4.765625 27.921875-12.371094 111.554687 15.519531 118.355468 27.886719 6.804688 8.722656 45.851563 8.722656 45.851563zm0 0"/><path d="m197.429688 57.199219c-34.042969 14.984375-90.824219 62.085937-90.824219 62.085937s-58.964844 147.613282-58.964844 236.128906c0 6.613282-.425781 11.972657-1.210937 16.234376l-.148438.09375-23.84375-41.125c-.082031-1.304688-.0625-2.65625.09375-3.992188 14.523438-124.980469 57.511719-224.578125 57.511719-224.578125 25.882812-25.882813 63.5625-42.539063 77.25-48.027344h39.683593zm0 0"/><path d="m441.152344 362.527344-34.199219-17.199219c-1.183594-1.816406-2.113281-3.84375-2.71875-6.039063l-43.539063-157.394531v-.011719c0-17.386718 5.515626-31.910156 12.976563-43.589843 7.199219 24.941406 55.859375 193.199219 67.195313 223.441406.105468.269531.199218.53125.285156.792969zm0 0"/></g><path d="m253.925781 279.101562h97.542969v45.851563h-205.878906v-45.851563h38.527344" fill="#fb6572"/><path d="m176.5625 279.101562h27.886719v45.851563h-63.058594v-45.851563h15.214844" fill="#ea394e"/><path d="m214.007812 279.101562h27.890626v45.851563h-63.0625v-45.851563h15.214843" fill="#ea394e"/><path d="m484.714844 323.457031c2.492187 13.5 5.296875 28.800781 7.28125 39.632813 1.726562 9.40625-2.851563 18.839844-11.316406 23.285156-11.671876 6.132812-30.386719 13.078125-55.03125 12.867188-10.589844-.089844-19.585938-7.796876-21.351563-18.242188l-6.277344-37.179688c-.90625-5.371093 3.394531-10.199218 8.839844-9.898437 13.742187.753906 38.945313-.65625 65.152344-16.210937 5.085937-3.023438 11.625-.070313 12.703125 5.746093zm0 0" fill="#fee372"/><path d="m347.371094 59.203125c-5.257813 16.925781-20.523438 39.078125-33.574219 55.914063-10.394531 13.394531-30.679687 13.257812-40.960937-.210938l-38.492188-49.933594 2.527344-12.75 93.476562.503906 16.636719 6.332032zm0 0" fill="#eabe32"/><path d="m246.429688 72.582031 25.042968 32.789063c10.289063 13.472656 30.570313 13.605468 40.957032.210937 16.085937-20.738281 35.417968-49.269531 35.417968-66.566406 0-29.617187-43.25-39.015625-101.417968-39.015625-58.167969 0-101.417969 9.398438-101.417969 39.015625 0 17.296875 19.335937 45.824219 35.417969 66.566406 10.386718 13.394531 30.667968 13.261719 40.957031-.210937zm0 0" fill="#fee372"/><path d="m301 48.972656c-11.082031 14.15625-54.5625 23.613282-54.5625 23.613282l-25.046875 32.792968c-10.289063 13.46875-30.574219 13.601563-40.964844.210938-16.078125-20.75-35.414062-49.277344-35.414062-66.570313 0-29.613281 43.253906-39.019531 101.421875-39.019531 50.972656 2.941406 54.566406 48.972656 54.566406 48.972656zm0 0" fill="#eabe32"/><path d="m451.097656 396.957031c-7.5625 1.535157-16.027344 2.476563-25.328125 2.390625-10.644531-.09375-19.695312-7.84375-21.472656-18.347656l-6.308594-37.40625c-.921875-5.402344 3.40625-10.261719 8.878907-9.957031 4.535156.25 10.304687.261719 16.949218-.386719 0 0-2.664062 56.800781 27.28125 63.707031zm0 0" fill="#eabe32"/><path d="m235.042969 264.828125h-32.054688c-10.835937 0-19.613281 8.777344-19.613281 19.613281v32.058594c0 10.835938 8.777344 19.621094 19.613281 19.621094h32.054688c10.835937 0 19.625-8.785156 19.625-19.621094v-32.058594c0-10.835937-8.789063-19.613281-19.625-19.613281zm-1.460938 50.207031h-29.132812v-29.128906h29.132812zm0 0" fill="#fff"/><path d="m417.335938 113.222656c-7.636719 5.121094-20.09375 14.945313-29.214844 29.28125-7.804688 12.203125-11.753906 25.453125-11.753906 39.378906 0 4.328126-3.511719 7.839844-7.839844 7.839844-2.871094 0-5.378906-1.546875-6.738282-3.847656-.574218-.949219-.941406-2.027344-1.054687-3.175781-.03125-.269531-.042969-.53125-.042969-.804688v-.011719c0-16.957031 4.785156-33.046874 14.210938-47.8125 11.179687-17.566406 26.28125-29.078124 35.066406-34.785156.960938.898438 1.914062 1.816406 2.855469 2.757813 0 0 1.691406 3.917969 4.511719 11.179687zm0 0" fill="#eabe32"/><path d="m91.191406 113.222656c7.636719 5.121094 20.09375 14.945313 29.214844 29.28125 7.804688 12.203125 11.757812 25.453125 11.757812 39.378906 0 4.328126 3.507813 7.839844 7.835938 7.839844 2.871094 0 5.378906-1.546875 6.738281-3.847656.574219-.949219.941407-2.027344 1.054688-3.175781.03125-.269531.042969-.53125.042969-.804688v-.011719c0-16.957031-4.785157-33.046874-14.210938-47.8125-11.179688-17.566406-26.277344-29.078124-35.066406-34.785156-.960938.898438-1.914063 1.816406-2.851563 2.757813 0 0-1.695312 3.917969-4.515625 11.179687zm0 0" fill="#eabe32"/><path d="m8.148438 323.457031c-2.496094 13.5-5.300782 28.800781-7.285157 39.632813-1.722656 9.40625 2.851563 18.839844 11.316407 23.285156 11.671874 6.132812 30.390624 13.078125 55.03125 12.867188 10.59375-.089844 19.589843-7.796876 21.351562-18.242188l6.277344-37.179688c.910156-5.371093-3.394532-10.199218-8.835938-9.898437-13.746094.753906-38.945312-.65625-65.152344-16.210937-5.089843-3.023438-11.628906-.070313-12.703124 5.746093zm0 0" fill="#fee372"/><path d="m33.117188 394.84375c-8.410157-2.414062-15.402344-5.464844-20.867188-8.328125-8.515625-4.472656-13.121094-13.957031-11.386719-23.425781 1.996094-10.898438 4.816407-26.289063 7.324219-39.863282 1.085938-5.851562 7.660156-8.816406 12.777344-5.777343 6.082031 3.605469 12.113281 6.457031 17.953125 8.691406-5.777344 24.003906-22.109375 58.234375-5.800781 68.703125zm0 0" fill="#eabe32"/><path d="m249.210938 167.894531c0 6.769531-5.484376 12.253907-12.253907 12.253907s-12.253906-5.484376-12.253906-12.253907 5.484375-12.253906 12.253906-12.253906 12.253907 5.484375 12.253907 12.253906zm0 0" fill="#fb6572"/><path d="m271.679688 222.488281c0 6.769531-5.484376 12.253907-12.253907 12.253907s-12.253906-5.484376-12.253906-12.253907 5.484375-12.253906 12.253906-12.253906 12.253907 5.484375 12.253907 12.253906zm0 0" fill="#fb6572"/><path d="m258.683594 381.566406c0 6.769532-5.484375 12.253906-12.253906 12.253906-6.765626 0-12.253907-5.484374-12.253907-12.253906 0-6.769531 5.488281-12.253906 12.253907-12.253906 6.769531 0 12.253906 5.484375 12.253906 12.253906zm0 0" fill="#fb6572"/><path d="m351.464844 324.953125h-39.953125l16.339843-20.210937-16.339843-25.640626h39.953125zm0 0" fill="#ea394e"/><path d="m284.957031 309.863281c-7.207031 0-10.527343-9.316406-4.976562-13.890625 2.714843-2.234375 6.734375-2.355468 9.578125-.285156 2.425781 1.761719 3.65625 4.84375 3.097656 7.789062-.691406 3.648438-3.972656 6.386719-7.699219 6.386719zm0 0" fill="#ea394e"/><path d="m246.429688 29.277344s56.820312 0 56.820312 18.730468c0 18.71875-56.820312 24.574219-56.820312 24.574219s-56.820313-5.855469-56.820313-24.574219c0-18.730468 56.820313-18.730468 56.820313-18.730468zm0 0" fill="#d8a71d"/></svg>