<?xml version="1.0" encoding="iso-8859-1"?>
<!-- Generator: Adobe Illustrator 19.0.0, SVG Export Plug-In . SVG Version: 6.00 Build 0)  -->
<svg version="1.1" id="Capa_1" xmlns="http://www.w3.org/2000/svg" xmlns:xlink="http://www.w3.org/1999/xlink" x="0px" y="0px"
	 viewBox="0 0 512 512" style="enable-background:new 0 0 512 512;" xml:space="preserve">
<g transform="translate(0 -1)">
	<g>
		<path style="fill:#D75E72;" d="M301.109,197.203c-10.58,8.606-17.337,21.038-18.803,34.597
			c-1.324-9.355-12.535-16.63-26.306-16.63c-13.948,0-25.247,7.499-26.306,17.001c-1.326-13.705-8.101-26.304-18.803-34.968
			c13.655-8.024,29.275-12.086,45.109-11.73C271.834,185.117,287.454,189.179,301.109,197.203z"/>
		<path style="fill:#D75E72;" d="M71.592,297.495l-0.971,2.207l-39.106,62.588c-4.022,6.457-11.837,9.467-19.151,7.377
			S0.004,360.893,0,353.285v-3.178c-0.014-4.046,1.427-7.963,4.061-11.034l46.257-53.937
			C56.821,290.193,63.977,294.35,71.592,297.495z"/>
		<path style="fill:#D75E72;" d="M512,350.107v3.178c-0.004,7.607-5.048,14.291-12.363,16.381s-15.129-0.92-19.151-7.377
			l-39.106-62.588l-5.826-0.177c1.589-0.618,3.266-1.324,4.855-2.03c7.615-3.145,14.771-7.302,21.275-12.359l46.257,53.937
			C510.573,342.145,512.014,346.061,512,350.107z"/>
	</g>
	<g>
		<path style="fill:#556080;" d="M229.782,228.463c0.643,38.16-22.424,72.725-57.909,86.775c-5.904,2.098-11.993,3.635-18.185,4.59
			c-20.728,2.877-41.82,1.617-62.058-3.708c-6.858-1.663-13.562-3.908-20.039-6.709c-7.615-3.145-14.771-7.302-21.274-12.359
			c-2.054-1.547-4.028-3.197-5.914-4.943c-13.206-13.492-23.089-29.873-28.866-47.846C9.4,228.658,4.817,212.484,1.854,195.978
			C0.752,190.451,0.132,184.839,0,179.205c0,0.794,6.709,2.383,7.239,2.56c5.675,1.484,11.594,1.785,17.39,0.883
			c9.922-2.448,19.063-7.367,26.571-14.301c8.711-7.168,18.401-13.054,28.778-17.479c34.839-12.819,73.696-8.331,104.695,12.094
			c9.634,5.947,18.448,13.129,26.218,21.363c11.078,11.137,17.756,25.904,18.803,41.578
			C229.769,226.754,229.798,227.609,229.782,228.463z"/>
		<path style="fill:#556080;" d="M512,179.205c-0.132,5.634-0.752,11.246-1.854,16.772c-2.963,16.506-7.546,32.68-13.683,48.287
			c-5.778,17.973-15.661,34.354-28.866,47.846c-1.887,1.747-3.861,3.397-5.914,4.943c-6.504,5.057-13.66,9.214-21.275,12.359
			c-1.589,0.706-3.266,1.412-4.855,2.03c-4.962,1.865-10.032,3.428-15.183,4.679c-20.238,5.324-41.33,6.584-62.058,3.708
			c-6.192-0.956-12.281-2.493-18.185-4.59c-35.485-14.05-58.552-48.615-57.909-86.775c-0.016-0.854,0.013-1.709,0.088-2.56
			c0.09-0.133,0.09-0.308,0-0.441c1.188-15.509,7.853-30.09,18.803-41.137c7.77-8.234,16.584-15.416,26.218-21.363
			c30.999-20.425,69.856-24.913,104.695-12.094c10.377,4.425,20.067,10.311,28.778,17.479c7.508,6.933,16.649,11.853,26.571,14.301
			c5.796,0.902,11.716,0.602,17.39-0.883C505.291,181.589,512,180,512,179.205z"/>
	</g>
	<g>
		<path style="fill:#8697CB;" d="M79.448,276.309c-3.57-0.001-6.788-2.152-8.154-5.45c-1.366-3.298-0.611-7.094,1.913-9.619
			l75.034-75.034c3.456-3.394,9.001-3.369,12.426,0.056c3.425,3.425,3.45,8.97,0.056,12.426l-75.034,75.034
			C84.036,275.381,81.79,276.311,79.448,276.309z"/>
		<path style="fill:#8697CB;" d="M114.759,293.964c-3.57-0.001-6.788-2.152-8.154-5.45c-1.366-3.298-0.611-7.094,1.913-9.619
			l52.966-52.966c3.456-3.394,9.001-3.369,12.426,0.056c3.425,3.425,3.45,8.97,0.056,12.426L121,291.377
			C119.347,293.036,117.1,293.967,114.759,293.964z"/>
		<path style="fill:#8697CB;" d="M353.104,276.309c-3.57-0.001-6.788-2.152-8.154-5.45c-1.366-3.298-0.611-7.094,1.913-9.619
			l75.034-75.034c2.223-2.264,5.49-3.16,8.556-2.348c3.067,0.812,5.462,3.207,6.274,6.274c0.812,3.067-0.085,6.333-2.348,8.556
			l-75.034,75.034C357.691,275.381,355.445,276.311,353.104,276.309z"/>
		<path style="fill:#8697CB;" d="M388.414,293.964c-3.57-0.001-6.788-2.152-8.154-5.45c-1.366-3.298-0.611-7.094,1.913-9.619
			l52.966-52.966c2.223-2.264,5.49-3.16,8.556-2.348c3.067,0.812,5.462,3.207,6.274,6.274c0.812,3.067-0.085,6.333-2.348,8.556
			l-52.966,52.966C393.002,293.036,390.756,293.967,388.414,293.964z"/>
	</g>
</g>
<g>
</g>
<g>
</g>
<g>
</g>
<g>
</g>
<g>
</g>
<g>
</g>
<g>
</g>
<g>
</g>
<g>
</g>
<g>
</g>
<g>
</g>
<g>
</g>
<g>
</g>
<g>
</g>
<g>
</g>
</svg>
