<svg height="512" viewBox="0 0 58 58" width="512" xmlns="http://www.w3.org/2000/svg"><g id="042---Hoodie" fill="none" transform="translate(-1)"><g fill="#802d40"><path id="Shape" d="m9.86 48.7-.86 3.5c-.06590106.2575067-.2316107.4781813-.46052449.6132779-.22891379.1350967-.5021944.1734983-.75947551.1067221l-5.85-1.49c-.25750666-.0659011-.47818129-.2316107-.61327795-.4605245s-.17349825-.5021944-.10672205-.7594755l.9-3.49z"/><path id="Shape" d="m57.89 46.72.9 3.49c.0667762.2572811.0283746.5305617-.1067221.7594755-.1350966.2289138-.3557712.3946234-.6132779.4605245l-5.81 1.49c-.2627394.0791965-.5464794.0469418-.7847391-.0892066s-.4101009-.3642258-.4752609-.6307934l-.9-3.5z"/><path id="Shape" d="m15 53h30v4c0 .5522847-.4477153 1-1 1h-28c-.5522847 0-1-.4477153-1-1z"/></g><path id="Shape" d="m13.44 15.39c-2.6174071.0625755-4.89202809 1.815086-5.62 4.33l-6.66 23.13c-.30497992 1.0414667-.17371472 2.162152.36368112 3.1049518.53739584.9427997 1.43479502 1.6267887 2.48631888 1.8950482l3.64.94c1.04861476.2697752 2.16180087.1029185 3.0852351-.4624494.9234342-.5653678 1.578221-1.4809435 1.8147649-2.5375506.12-.56.02 2.01.89-30.4z" fill="#df4d60"/><path id="Shape" d="m47.45 45.77c.2365439 1.0566071.8913307 1.9721828 1.8147649 2.5375506.9234342.5653679 2.0366203.7322246 3.0852351.4624494l3.65-.94c1.0515239-.2682595 1.948923-.9522485 2.4863189-1.8950482.5373958-.9427998.668661-2.0634851.3636811-3.1049518l-6.67-23.11c-.7279719-2.514914-3.0025929-4.2674245-5.62-4.33.87 32.38.77 29.84.89 30.38z" fill="#df4d60"/><path id="Shape" d="m48 19.5c-.74 29.54-.59 24.09-.77 31.57-.0380309 1.6294544-1.3701019 2.9304438-3 2.93h-28.46c-1.6298981.0004438-2.9619691-1.3005456-3-2.93-.19-7.58 0-1.33-.77-31.57-.0197751-2.9117494 1.9079683-5.477981 4.71-6.27l4.36-1.23c-1.3823356-.4378236-2.2536797-1.8016666-2.07-3.24.16-1.6 1.23-8.76 11-8.76 11 0 11 9.08 11 9.08.0284419 1.3261326-.817376 2.5135308-2.08 2.92l4.37 1.28c2.7861334.7840755 4.7106952 3.3256411 4.71 6.22z" fill="#ff5364"/><ellipse id="Oval" cx="30" cy="4" fill="#802d40" rx="8" ry="4"/><path id="Shape" d="m27 26c-.5522847 0-1-.4477153-1-1v-11c0-.5522847.4477153-1 1-1s1 .4477153 1 1v11c0 .5522847-.4477153 1-1 1z" fill="#802d40"/><path id="Shape" d="m33 26c-.5522847 0-1-.4477153-1-1v-11c0-.5522847.4477153-1 1-1s1 .4477153 1 1v11c0 .5522847-.4477153 1-1 1z" fill="#802d40"/><path id="Shape" d="m40 49c1.1045695 0 2-.8954305 2-2v-3.48c.0112532-.8150282-.4881631-1.5501689-1.25-1.84-2.93-1.08-3.65-3.9-3.79-5.81-.0674628-1.0382638-.9197134-1.8513804-1.96-1.87h-10c-1.0557307-.0022324-1.9313797.8164994-2 1.87-.14 1.91-.86 4.73-3.79 5.81-.7460972.3027951-1.227597 1.034993-1.21 1.84v3.48c0 1.1045695.8954305 2 2 2z" fill="#fb7b76"/><path id="Shape" d="m28 15h-2c-.5522847 0-1-.4477153-1-1s.4477153-1 1-1h2c.5522847 0 1 .4477153 1 1s-.4477153 1-1 1z" fill="#df4d60"/><path id="Shape" d="m34 15h-2c-.5522847 0-1-.4477153-1-1s.4477153-1 1-1h2c.5522847 0 1 .4477153 1 1s-.4477153 1-1 1z" fill="#df4d60"/></g></svg>